<?xml version="1.0" encoding="UTF-8"?>
<svg version="1.1" xmlns="http://www.w3.org/2000/svg" width="500" height="500">
<path d="M0 0 C13.53 0 27.06 0 41 0 C41 0.66 41 1.32 41 2 C41.66604248 1.98952637 42.33208496 1.97905273 43.01831055 1.96826172 C61.14344285 1.72451579 78.94167501 2.51570003 97 4 C97 4.66 97 5.32 97 6 C97.60585938 5.98839844 98.21171875 5.97679687 98.8359375 5.96484375 C104.95924948 5.89890039 110.92093331 6.27568567 117 7 C117 7.66 117 8.32 117 9 C117.56847656 8.98839844 118.13695312 8.97679687 118.72265625 8.96484375 C123.60670484 8.90776806 128.18503965 9.18043228 133 10 C133 10.66 133 11.32 133 12 C133.92941406 12.06058594 134.85882813 12.12117187 135.81640625 12.18359375 C148.09490334 13.01581722 148.09490334 13.01581722 154 14 C154 14.66 154 15.32 154 16 C157.96 16.33 161.92 16.66 166 17 C166 17.66 166 18.32 166 19 C169.63 19.33 173.26 19.66 177 20 C177 20.66 177 21.32 177 22 C177.82177734 22.03867188 177.82177734 22.03867188 178.66015625 22.078125 C186.74009417 22.65620186 194.24921981 24.77810968 202 27 C202 27.66 202 28.32 202 29 C205.96 29.495 205.96 29.495 210 30 C210 30.66 210 31.32 210 32 C211.258125 32.0825 212.51625 32.165 213.8125 32.25 C219.55842241 32.86302038 224.66812307 34.8572831 230 37 C230 37.66 230 38.32 230 39 C230.99 39.103125 231.98 39.20625 233 39.3125 C237.28297163 39.90808706 240.99996371 41.38595027 245 43 C245 43.66 245 44.32 245 45 C246.093125 45.144375 247.18625 45.28875 248.3125 45.4375 C252 46 252 46 255 47 C255 47.66 255 48.32 255 49 C256.32 49 257.64 49 259 49 C259 49.99 259 50.98 259 52 C252.44286406 52.14596314 245.88564816 52.28786065 239.32836914 52.42724609 C237.10894898 52.47486559 234.88954684 52.52333483 232.67016602 52.57275391 C217.44427307 52.91103038 202.22966648 53.07109447 187 53 C187 53.66 187 54.32 187 55 C185.94498291 55.08564209 184.88996582 55.17128418 183.80297852 55.25952148 C179.90204082 55.57738318 176.00161496 55.90118032 172.10131836 56.22680664 C170.41069768 56.36710914 168.7199412 56.50578486 167.02905273 56.64282227 C164.60363114 56.83967014 162.17875241 57.04229513 159.75390625 57.24609375 C158.99348526 57.3065538 158.23306427 57.36701385 157.44960022 57.42930603 C153.92538993 57.44132832 153.92538993 57.44132832 151 59 C145.03648279 60.07822521 139.03869603 60.09585232 133 60 C133 60.66 133 61.32 133 62 C131.50146484 62.19916016 131.50146484 62.19916016 129.97265625 62.40234375 C128.68230469 62.57894531 127.39195312 62.75554687 126.0625 62.9375 C124.77472656 63.11152344 123.48695313 63.28554687 122.16015625 63.46484375 C119.14533687 63.66162423 119.14533687 63.66162423 118 65 C116.11370887 65.40190029 114.21507944 65.74657353 112.3125 66.0625 C111.27738281 66.23910156 110.24226563 66.41570312 109.17578125 66.59765625 C106.07778231 66.99014566 103.11875137 67.07013684 100 67 C100 67.66 100 68.32 100 69 C99.27554687 69.12117188 98.55109375 69.24234375 97.8046875 69.3671875 C92.69811457 70.25232681 87.88431892 71.23333145 83 73 C76.32854078 75.2666604 70.03817009 76.56572993 63 77 C63 77.66 63 78.32 63 79 C60.03 79.33 57.06 79.66 54 80 C54 80.66 54 81.32 54 82 C51.41877492 82.84039886 48.83536099 83.67250556 46.25 84.5 C45.15558594 84.85771484 45.15558594 84.85771484 44.0390625 85.22265625 C43.33007812 85.44824219 42.62109375 85.67382812 41.890625 85.90625 C40.91657715 86.22045898 40.91657715 86.22045898 39.92285156 86.54101562 C38 87 38 87 34 87 C34 87.66 34 88.32 34 89 C31.36 89.33 28.72 89.66 26 90 C26 90.66 26 91.32 26 92 C23.36 92.33 20.72 92.66 18 93 C18 93.66 18 94.32 18 95 C14.535 95.495 14.535 95.495 11 96 C11 96.66 11 97.32 11 98 C7.38026598 99.31626692 4.90432869 100 1 100 C1 100.66 1 101.32 1 102 C-1.97 102.495 -1.97 102.495 -5 103 C-5 103.66 -5 104.32 -5 105 C-8.465 105.495 -8.465 105.495 -12 106 C-12 106.66 -12 107.32 -12 108 C-14.90600261 109.25664978 -16.79604584 110 -20 110 C-20 110.66 -20 111.32 -20 112 C-22.97 112.495 -22.97 112.495 -26 113 C-26 113.66 -26 114.32 -26 115 C-28.97 115.495 -28.97 115.495 -32 116 C-32 116.66 -32 117.32 -32 118 C-34.90600261 119.25664978 -36.79604584 120 -40 120 C-40 120.66 -40 121.32 -40 122 C-42.97 122.495 -42.97 122.495 -46 123 C-46 123.66 -46 124.32 -46 125 C-47.60032137 125.84069415 -49.20541171 126.67231505 -50.8125 127.5 C-51.70582031 127.9640625 -52.59914062 128.428125 -53.51953125 128.90625 C-56 130 -56 130 -59 130 C-59.33 130.99 -59.66 131.98 -60 133 C-60.99 133 -61.98 133 -63 133 C-63 133.66 -63 134.32 -63 135 C-64.98 135.33 -66.96 135.66 -69 136 C-69.33 136.99 -69.66 137.98 -70 139 C-71.77734375 140.16796875 -71.77734375 140.16796875 -73.9375 141.1875 C-75.00291016 141.70376953 -75.00291016 141.70376953 -76.08984375 142.23046875 C-78 143 -78 143 -80 143 C-80 143.66 -80 144.32 -80 145 C-81.65 145.33 -83.3 145.66 -85 146 C-85.33 146.99 -85.66 147.98 -86 149 C-86.99 149 -87.98 149 -89 149 C-89 149.66 -89 150.32 -89 151 C-91.64738916 152.4606285 -92.89448334 153 -96 153 C-96 153.66 -96 154.32 -96 155 C-97.32 155.33 -98.64 155.66 -100 156 C-100 156.66 -100 157.32 -100 158 C-101.6796875 159.2890625 -101.6796875 159.2890625 -103.875 160.625 C-104.59429687 161.07101562 -105.31359375 161.51703125 -106.0546875 161.9765625 C-108 163 -108 163 -110 163 C-110 163.66 -110 164.32 -110 165 C-115.41176471 169 -115.41176471 169 -118 169 C-118 169.66 -118 170.32 -118 171 C-118.9590625 171.433125 -118.9590625 171.433125 -119.9375 171.875 C-122.15206079 172.82823451 -122.15206079 172.82823451 -123 175 C-125.5625 175.625 -125.5625 175.625 -128 176 C-128.33 176.99 -128.66 177.98 -129 179 C-129.66 179 -130.32 179 -131 179 C-131 179.66 -131 180.32 -131 181 C-131.8971875 181.4021875 -131.8971875 181.4021875 -132.8125 181.8125 C-135.04267613 182.88022403 -135.04267613 182.88022403 -136.5625 184.625 C-138 186 -138 186 -141 186 C-141.37125 186.89525391 -141.37125 186.89525391 -141.75 187.80859375 C-143.19319089 190.33868777 -144.61513769 191.41852322 -147 193.0625 C-149.77920261 194.98852828 -151.07469566 196.11204349 -153 199 C-153.66 199 -154.32 199 -155 199 C-155.33 199.99 -155.66 200.98 -156 202 C-156.99 202 -157.98 202 -159 202 C-159 202.66 -159 203.32 -159 204 C-160.4300239 205.23048568 -161.86601765 206.45514531 -163.33984375 207.6328125 C-165.72364844 209.59594577 -167.84830395 211.78853461 -170 214 C-170.66 214.66 -171.32 215.32 -172 216 C-172.99 216 -173.98 216 -175 216 C-175.33 216.99 -175.66 217.98 -176 219 C-176.66 219 -177.32 219 -178 219 C-178.33 219.99 -178.66 220.98 -179 222 C-179.66 222 -180.32 222 -181 222 C-181.66 223.32 -182.32 224.64 -183 226 C-183.66 226 -184.32 226 -185 226 C-185.33 226.99 -185.66 227.98 -186 229 C-186.66 229 -187.32 229 -188 229 C-188.33 229.99 -188.66 230.98 -189 232 C-189.66 232 -190.32 232 -191 232 C-191.33 232.99 -191.66 233.98 -192 235 C-192.66 235 -193.32 235 -194 235 C-194.309375 236.0209375 -194.309375 236.0209375 -194.625 237.0625 C-197.05398864 242.25170301 -200.86468827 246.19175062 -205.3125 249.75 C-208.21938607 251.7841382 -208.21938607 251.7841382 -209 255 C-209.66 255 -210.32 255 -211 255 C-211.33 255.99 -211.66 256.98 -212 258 C-213.98 258.33 -215.96 258.66 -218 259 C-218 256.36 -218 253.72 -218 251 C-217.34 251 -216.68 251 -216 251 C-216.01047363 250.30253662 -216.02094727 249.60507324 -216.03173828 248.88647461 C-216.23972119 232.79675906 -215.74546385 216.99931156 -214 201 C-213.34 201 -212.68 201 -212 201 C-212.01160156 200.443125 -212.02320313 199.88625 -212.03515625 199.3125 C-212.09676433 194.10221657 -211.74999344 189.1562049 -211 184 C-210.34 184 -209.68 184 -209 184 C-208.67 179.71 -208.34 175.42 -208 171 C-207.34 171 -206.68 171 -206 171 C-205.93941406 170.18015625 -205.87882812 169.3603125 -205.81640625 168.515625 C-205.69072266 166.89914062 -205.69072266 166.89914062 -205.5625 165.25 C-205.48128906 164.18265625 -205.40007812 163.1153125 -205.31640625 162.015625 C-205.05909227 159.56320038 -204.68187782 157.36078709 -204 155 C-203.34 155 -202.68 155 -202 155 C-201.67 151.7 -201.34 148.4 -201 145 C-200.34 145 -199.68 145 -199 145 C-198.67 142.03 -198.34 139.06 -198 136 C-197.34 136 -196.68 136 -196 136 C-195.9175 134.9275 -195.835 133.855 -195.75 132.75 C-195.04725866 126.9182957 -192.97231042 121.50412211 -191 116 C-190.34 116 -189.68 116 -189 116 C-189 114.68 -189 113.36 -189 112 C-189.66 112 -190.32 112 -191 112 C-192.22932617 110.53809861 -193.45429691 109.07202617 -194.64453125 107.578125 C-196.07692638 105.81181464 -196.07692638 105.81181464 -198.5 104 C-201.45868936 101.63304851 -203.60681632 98.93165 -206 96 C-206.9075 95.13375 -207.815 94.2675 -208.75 93.375 C-211.04614109 90.95129552 -211.26039956 90.06405896 -212 87 C-213.9837767 85.71563266 -213.9837767 85.71563266 -216 85 C-216 84.34 -216 83.68 -216 83 C-217.485 82.505 -217.485 82.505 -219 82 C-219 81.34 -219 80.68 -219 80 C-220.485 79.505 -220.485 79.505 -222 79 C-222 78.01 -222 77.02 -222 76 C-222.99 75.67 -223.98 75.34 -225 75 C-229 70.65714286 -229 70.65714286 -229 67 C-229.598125 66.773125 -230.19625 66.54625 -230.8125 66.3125 C-233.64378087 64.61373148 -234.64722513 62.99034445 -236 60 C-235.6875 57.6875 -235.6875 57.6875 -235 56 C-232.03 55.505 -232.03 55.505 -229 55 C-229 54.34 -229 53.68 -229 53 C-227.39850114 52.32694982 -225.79368971 51.66177773 -224.1875 51 C-223.29417969 50.62875 -222.40085938 50.2575 -221.48046875 49.875 C-219 49 -219 49 -216 49 C-216 48.34 -216 47.68 -216 47 C-212.7 46.34 -209.4 45.68 -206 45 C-206 44.34 -206 43.68 -206 43 C-203.69 42.67 -201.38 42.34 -199 42 C-199 41.34 -199 40.68 -199 40 C-196.36 39.67 -193.72 39.34 -191 39 C-191 38.34 -191 37.68 -191 37 C-188.36 36.67 -185.72 36.34 -183 36 C-183 35.34 -183 34.68 -183 34 C-181.7625 33.67 -180.525 33.34 -179.25 33 C-178.20585937 32.7215625 -178.20585937 32.7215625 -177.140625 32.4375 C-175 32 -175 32 -171 32 C-171 31.34 -171 30.68 -171 30 C-168.03 29.67 -165.06 29.34 -162 29 C-162 28.34 -162 27.68 -162 27 C-161.40832031 26.87882812 -160.81664062 26.75765625 -160.20703125 26.6328125 C-155.28378903 25.61470814 -155.28378903 25.61470814 -150.5625 23.9375 C-146.50548877 22.4532276 -142.28672395 22.31630196 -138 22 C-138 21.34 -138 20.68 -138 20 C-134.04 19.67 -130.08 19.34 -126 19 C-126 18.34 -126 17.68 -126 17 C-125.28714844 16.87882812 -124.57429688 16.75765625 -123.83984375 16.6328125 C-122.88207031 16.46523437 -121.92429687 16.29765625 -120.9375 16.125 C-119.99777344 15.96257812 -119.05804688 15.80015625 -118.08984375 15.6328125 C-114.92650644 15.03559791 -114.92650644 15.03559791 -111.625 13.96875 C-107.71027115 12.92257246 -104.10460944 12.58962528 -100.0625 12.375 C-99.03672852 12.31699219 -99.03672852 12.31699219 -97.99023438 12.2578125 C-96.32720487 12.16477588 -94.66364153 12.08136213 -93 12 C-93 11.34 -93 10.68 -93 10 C-87.27959989 9.1679418 -81.77759884 8.87963336 -76 9 C-76 8.34 -76 7.68 -76 7 C-69.28837062 6.11978631 -62.76594019 5.88618045 -56 6 C-56 5.34 -56 4.68 -56 4 C-37.26598652 2.46016197 -18.80368096 1.70430888 0 2 C0 1.34 0 0.68 0 0 Z " fill="#FFFFFF" transform="translate(240,160)"/>
<path d="M0 0 C5.77759884 -0.12036664 11.27959989 0.1679418 17 1 C17 1.66 17 2.32 17 3 C17.59167969 2.98839844 18.18335938 2.97679688 18.79296875 2.96484375 C23.00231785 2.91677614 26.8922333 2.93993117 31 4 C31 4.66 31 5.32 31 6 C32.0725 5.95875 33.145 5.9175 34.25 5.875 C42.03782385 5.875 49.6844875 7.38731696 57 10 C58.99369031 10.36920191 60.99279077 10.71325582 63 11 C63 11.66 63 12.32 63 13 C66.3 13.33 69.6 13.66 73 14 C73 14.66 73 15.32 73 16 C73.55945313 16.02578125 74.11890625 16.0515625 74.6953125 16.078125 C82.45821023 16.62726889 89.58859658 18.70396004 97 21 C97 21.66 97 22.32 97 23 C99.97 23.33 102.94 23.66 106 24 C106 24.66 106 25.32 106 26 C106.969375 26.103125 107.93875 26.20625 108.9375 26.3125 C113.49084339 26.95237921 117.68448213 28.46113316 122 30 C122.99 30.33 123.98 30.66 125 31 C125 31.66 125 32.32 125 33 C127.64 33.33 130.28 33.66 133 34 C133 34.66 133 35.32 133 36 C135.97 36.495 135.97 36.495 139 37 C139 37.66 139 38.32 139 39 C140.093125 39.144375 141.18625 39.28875 142.3125 39.4375 C146 40 146 40 149 41 C149 41.66 149 42.32 149 43 C151.31 43.33 153.62 43.66 156 44 C156 44.66 156 45.32 156 46 C158.97 46.495 158.97 46.495 162 47 C162 47.66 162 48.32 162 49 C162.94875 49.144375 163.8975 49.28875 164.875 49.4375 C168 50 168 50 170 51 C170 51.66 170 52.32 170 53 C172.97 53.495 172.97 53.495 176 54 C176 54.66 176 55.32 176 56 C178.97 56.495 178.97 56.495 182 57 C182 57.66 182 58.32 182 59 C182.78375 59.144375 183.5675 59.28875 184.375 59.4375 C187 60 187 60 189 61 C189 61.66 189 62.32 189 63 C190.98 63.33 192.96 63.66 195 64 C195 64.66 195 65.32 195 66 C196.65 66.33 198.3 66.66 200 67 C200 67.66 200 68.32 200 69 C200.86625 69.268125 201.7325 69.53625 202.625 69.8125 C211.46067416 72.92134831 211.46067416 72.92134831 213 76 C213.99 76.33 214.98 76.66 216 77 C216 77.66 216 78.32 216 79 C216.56460937 79.10699219 217.12921875 79.21398437 217.7109375 79.32421875 C220.37679223 80.1112373 222.30766742 81.28182046 224.625 82.8125 C225.40101563 83.31394531 226.17703125 83.81539063 226.9765625 84.33203125 C229 86 229 86 231 90 C228.03 89.67 225.06 89.34 222 89 C222 88.34 222 87.68 222 87 C219.03 86.67 216.06 86.34 213 86 C213 85.34 213 84.68 213 84 C211.96875 83.9175 210.9375 83.835 209.875 83.75 C202.31207604 82.81813973 194.95273835 80.32549759 187.75 77.91015625 C185.17363219 77.05746634 182.66948554 76.47108568 180 76 C180 75.34 180 74.68 180 74 C176.37 73.67 172.74 73.34 169 73 C169 72.34 169 71.68 169 71 C168.28714844 70.93941406 167.57429687 70.87882812 166.83984375 70.81640625 C151.4719764 69.4719764 151.4719764 69.4719764 150 68 C147.65276034 67.602507 145.29671452 67.25631277 142.9375 66.9375 C141.64714844 66.76089844 140.35679687 66.58429688 139.02734375 66.40234375 C138.02832031 66.26957031 137.02929688 66.13679688 136 66 C136 65.34 136 64.68 136 64 C130.72 63.67 125.44 63.34 120 63 C120 62.34 120 61.68 120 61 C119.40719238 61.01160156 118.81438477 61.02320313 118.20361328 61.03515625 C111.69852559 61.10607019 105.34193226 60.67212498 98.875 60 C97.44027344 59.85691406 97.44027344 59.85691406 95.9765625 59.7109375 C93.65056246 59.4783375 91.32511041 59.24130321 89 59 C89 58.34 89 57.68 89 57 C87.66775391 57.01740234 87.66775391 57.01740234 86.30859375 57.03515625 C74.18439225 57.12079642 62.10774793 56.59838502 50 56 C50 55.34 50 54.68 50 54 C33.83 54 17.66 54 1 54 C1 54.66 1 55.32 1 56 C-0.145896 56.05534912 -1.29179199 56.11069824 -2.47241211 56.16772461 C-6.70865769 56.37358575 -10.94457524 56.58562132 -15.18041992 56.79956055 C-17.01659885 56.8914264 -18.85286327 56.98159922 -20.68920898 57.07006836 C-23.32299527 57.19724606 -25.95641786 57.33043467 -28.58984375 57.46484375 C-29.41588608 57.50343002 -30.24192841 57.5420163 -31.09300232 57.58177185 C-34.85758832 57.43664506 -34.85758832 57.43664506 -38 59 C-39.9230873 59.2285321 -41.85360228 59.39518857 -43.78515625 59.53515625 C-45.53989258 59.66567383 -45.53989258 59.66567383 -47.33007812 59.79882812 C-49.17762695 59.9293457 -49.17762695 59.9293457 -51.0625 60.0625 C-52.29806641 60.15337891 -53.53363281 60.24425781 -54.80664062 60.33789062 C-57.87081994 60.56267598 -60.93524802 60.7831856 -64 61 C-63.26066044 56.58614283 -62.16761727 54.25560664 -59 51 C-57.700625 50.505 -57.700625 50.505 -56.375 50 C-55.199375 49.505 -55.199375 49.505 -54 49 C-53.32558869 47.3364521 -52.6599679 45.66933058 -52 44 C-50.12545997 42.04580529 -48.2077433 40.60981283 -46 39 C-45.34 39 -44.68 39 -44 39 C-43.773125 38.443125 -43.54625 37.88625 -43.3125 37.3125 C-40.37002247 32.12813483 -35.85384375 29.23589583 -31 26 C-30.34 25.01 -29.68 24.02 -29 23 C-28.34 23 -27.68 23 -27 23 C-26.505 21.515 -26.505 21.515 -26 20 C-24.02678947 18.6273318 -22.02456848 17.29572383 -20 16 C-19.443125 15.4225 -18.88625 14.845 -18.3125 14.25 C-17 13 -17 13 -14 13 C-13.67 12.01 -13.34 11.02 -13 10 C-12.34 10 -11.68 10 -11 10 C-10.67 9.01 -10.34 8.02 -10 7 C-9.01 6.67 -8.02 6.34 -7 6 C-6.505 5.484375 -6.01 4.96875 -5.5 4.4375 C-4 3 -4 3 -1 3 C-0.67 2.01 -0.34 1.02 0 0 Z " fill="#FFFFFF" transform="translate(204,80)"/>
</svg>
